<?xml version="1.0" encoding="utf-8"?>
<svg width="343px" height="95px" viewBox="0 0 343 95" version="1.1" xmlns:xlink="http://www.w3.org/1999/xlink" xmlns="http://www.w3.org/2000/svg">
  <desc>Created with Lunacy</desc>
  <g id="Group-2">
    <g id="&lt;-livia-lima-/&gt;">
      <g id="&lt;">
        <path d="M14.832 64.044C15.408 63.948 16.08 64.092 16.08 63.228C16.08 62.076 11.088 59.724 9.36 59.052C8.736 58.812 7.152 58.332 7.152 57.948C7.152 57.036 9.456 56.412 9.552 56.364C10.176 55.836 11.472 55.5 11.76 55.116C12.432 53.868 15.408 53.628 15.408 52.332C15.408 51.564 14.064 50.46 13.68 50.46C12.24 50.46 9.072 53.292 7.92 53.964C6.72 54.684 3.84 55.116 3.84 56.988C3.84 59.82 6.24 60.78 9.936 61.836C11.856 62.412 13.872 64.044 14.832 64.044Z" />
      </g>
      <g id="livia-lima">
        <path d="M47.248 50.06C47.0619 51.6109 46.8758 52.1395 46.6897 53.278C47.1217 53.7234 47.184 54.2968 47.184 55.244C47.184 56.844 46.288 56.972 46.288 58.06C46.288 58.316 46.352 58.828 46.544 58.828C46.608 58.828 46.736 58.636 46.928 58.636C47.12 58.636 47.184 60.172 47.184 61.196C47.184 63.372 46.16 63.756 46.16 65.612C46.16 66.38 46.096 66.892 46.096 67.724C46.096 68.94 46.352 70.156 47.888 70.156C47.952 70.156 48.016 70.156 48.08 70.092C48.144 71.052 48.08 72.396 48.464 72.46C49.424 72.46 51.536 63.372 53.136 60.3C53.328 60.364 53.456 60.364 53.584 60.364C54.224 60.364 53.776 58.892 54.224 58.892C54.544 58.892 54.416 61.324 54.864 61.324C55.312 60.876 55.312 59.148 55.312 57.996C55.312 57.484 55.184 56.908 55.184 56.396C55.184 54.732 55.696 52.364 57.232 51.532C57.744 51.276 57.872 49.484 58.064 48.652C58.256 47.564 59.088 46.732 59.408 45.644C59.4551 45.432 59.7798 45.0551 60.2223 44.6636C60.8738 41.7838 61.6661 39.436 62.48 39.436C63.376 39.436 64.592 39.884 65.552 40.14C67.28 40.652 68.432 45.388 68.432 47.692C68.432 49.292 68.24 50.828 68.112 52.364C67.664 53.516 68.048 54.732 67.6 55.884C67.536 55.948 67.536 56.076 67.536 56.204C67.536 57.42 67.6 64.46 69.264 64.46C69.392 64.46 69.52 64.46 69.648 64.332C72.4 61.068 74.768 58.252 75.664 54.092C75.8805 53.0094 76.5548 52.2931 77.3772 52.0979C77.5083 49.9316 77.606 47.7558 77.776 45.58C77.84 44.492 78.224 43.148 78.224 42.252C78.224 41.676 77.84 41.036 77.84 40.46C77.84 39.884 77.968 38.924 78.608 38.924C80.08 38.924 83.216 39.372 83.216 40.78C83.216 47.948 81.936 54.284 81.936 60.94C81.936 61.26 81.936 61.9 82.256 61.9C82.832 61.9 84.688 58.124 85.392 57.228C85.904 56.588 86.224 55.372 86.608 54.988C87.312 54.284 87.568 53.452 87.568 52.556C87.568 52.172 87.44 51.724 87.44 51.34C87.44 50.828 87.568 50.252 87.568 49.74C87.568 47.948 92.112 47.628 95.184 46.86C99.194 45.8729 103.442 45.0048 107.584 44.9435C108.247 41.9375 109.064 39.436 109.904 39.436C110.8 39.436 112.016 39.884 112.976 40.14C114.704 40.652 115.856 45.388 115.856 47.692C115.856 49.292 115.664 50.828 115.536 52.364C115.088 53.516 115.472 54.732 115.024 55.884C114.96 55.948 114.96 56.076 114.96 56.204C114.96 57.42 115.024 64.46 116.688 64.46C116.816 64.46 116.944 64.46 117.072 64.332C119.824 61.068 122.192 58.252 123.088 54.092C123.263 53.2152 123.739 52.5787 124.35 52.2647C125.056 50.3634 125.565 48.3039 127.696 45.26C129.488 42.7 130.256 39.5 134.672 39.5C137.616 39.5 139.088 40.844 140.56 42.764C142.224 41.932 143.312 39.884 145.296 39.116C146.384 38.668 147.024 37.58 148.624 37.58C150.032 37.58 152.016 38.284 152.016 41.292C152.016 45.452 150.16 50.316 150.16 55.116C150.16 56.076 149.136 57.42 149.136 58.764C149.136 61.708 148.496 64.972 148.496 67.916C148.496 68.94 148.56 69.9 148.56 70.86C148.56 71.308 148.496 71.82 148.496 72.204C148.496 72.652 148.624 73.1 149.008 73.484C148.944 73.74 148.88 74.06 148.88 74.316C148.88 74.572 149.584 76.812 149.776 76.812C150.736 76.812 152.208 72.012 152.208 70.604C152.912 68.108 153.552 65.804 154.384 63.5C154.448 62.86 155.088 62.796 155.28 61.964C155.92 59.532 155.6 57.932 157.392 56.268C157.648 56.076 157.776 55.692 157.84 55.436C158.288 53.772 160.144 51.66 161.488 51.66C161.936 51.66 162.896 51.98 162.896 52.62C162.896 52.748 162.832 52.876 162.768 52.94C162.32 53.644 158.928 57.74 158.928 59.724C158.672 61.644 157.648 63.372 157.2 65.228C156.752 67.02 156.432 69.388 155.6 70.988C155.152 71.628 155.536 72.652 154.896 73.484C154.384 74.444 154.384 76.62 154.384 77.964C154.192 79.308 153.296 80.076 152.848 81.1C152.336 82.252 150.8 82.252 149.84 82.252C148.24 82.252 147.472 81.228 146.384 80.204C145.744 79.628 146 78.86 145.68 78.668C144.864 77.9609 144.834 77.0227 144.804 76.0891C144.799 75.9242 144.794 75.7594 144.784 75.596C144.784 74.956 144.848 74.316 144.848 73.676C144.848 72.588 143.888 72.268 143.888 71.372C143.888 66.38 144.464 60.044 144.784 54.604C144.848 53.324 145.808 52.172 145.808 51.468C145.744 51.148 145.744 50.764 145.744 50.444C145.744 45.964 146.064 46.796 146.704 45.58C146.704 44.812 146.384 44.172 146.32 43.468C145.744 43.596 145.296 43.724 144.784 43.788C143.76 43.98 144.528 45.58 142.928 45.58C142.48 46.604 142.288 47.18 141.456 47.628C141.328 47.628 139.024 49.676 138.896 50.252C138.512 51.852 138.768 52.876 137.168 53.324C136.72 53.452 134.48 58.38 133.2 61.068C130 66.892 130.128 66.956 127.12 66.956C125.008 66.956 122.64 65.548 122.64 62.86C122.587 62.7356 122.583 62.5963 122.579 62.4574C122.572 62.2236 122.565 61.9905 122.324 61.8301C121.791 62.8634 120.779 63.7233 120.656 64.524C120.656 65.228 119.376 66.124 119.056 67.084C118.352 68.364 115.856 69.26 114.384 69.26C112.272 69.26 109.52 66.892 108.56 64.716C107.984 63.436 106.32 61.132 106.32 59.276C106.32 57.804 106.064 56.396 106.064 54.988C106.064 54.3131 106.394 51.4409 106.925 48.3449C102.856 49.1378 98.6041 51.0124 94.352 51.916C91.408 52.556 91.536 55.052 89.872 57.1C87.952 59.468 86.608 64.012 85.136 67.532C83.664 70.988 82.768 71.308 80.528 71.308C79.824 70.86 79.248 70.476 78.672 70.092C76.88 66.764 76.816 62.732 76.816 58.956C76.816 58.5885 76.8746 58.221 76.8797 57.8535C76.5809 58.5998 76.1369 59.5931 75.664 59.98C75.088 60.364 75.28 61.132 74.96 61.708C74.448 62.796 73.36 63.692 73.232 64.524C73.232 65.228 71.952 66.124 71.632 67.084C70.928 68.364 68.432 69.26 66.96 69.26C64.848 69.26 62.096 66.892 61.136 64.716C60.56 63.436 58.896 61.132 58.896 59.276C58.896 57.804 58.64 56.396 58.64 54.988C58.64 54.5667 58.7687 53.2889 58.9945 51.635C58.6231 52.4864 58.3142 53.132 58.064 53.132C57.808 53.132 57.744 52.684 57.424 52.684C56.848 52.684 56.976 58.508 56.784 60.876C56.528 61.068 56.272 61.196 55.952 61.388C55.8789 62.2901 55.88 63.2014 55.8812 64.115C55.8831 65.5996 55.885 67.0901 55.568 68.556C55.312 68.556 54.992 68.492 54.672 68.492C54.608 68.62 54.544 68.748 54.544 68.876C54.544 69.196 54.736 69.516 54.736 69.9C54.736 70.22 54.672 70.54 54.672 70.86C54.672 71.052 54.736 71.308 54.736 71.564C54.672 73.804 53.648 75.468 53.072 77.452C52.56 79.116 51.024 79.116 50.704 80.012C50.512 80.588 49.296 81.612 49.232 81.612C48.912 81.612 48.656 81.164 48.272 81.164C47.824 81.164 47.312 81.484 46.864 81.484C44.048 81.164 44.048 75.916 42.64 74.572C42.448 74.38 42.384 73.932 42.384 73.356C42.384 70.348 41.36 71.18 41.36 67.404C41.36 66.316 41.424 65.1 41.424 64.268C41.424 63.18 41.04 62.284 41.04 61.26C41.04 59.788 41.424 58.316 41.424 56.844C41.424 56.204 41.424 55.628 41.36 54.988C41.36 54.3105 41.6978 54.2687 41.9969 54.2318C42.2347 54.2024 42.448 54.1761 42.448 53.836C42.448 53.452 42.384 53.068 42.384 52.684C42.448 51.404 42.512 50.124 42.512 48.844C42.512 47.308 41.808 46.028 41.808 44.62C41.808 42.316 42.32 40.396 42.704 38.22C42.768 38.092 42.832 37.9 42.832 37.644C42.832 37.068 42.64 36.492 42.64 35.852C42.64 35.276 43.024 34.764 43.024 34.188C43.024 33.74 42.896 33.292 42.896 32.78C42.896 31.372 43.344 29.516 43.344 28.236C43.344 27.724 43.28 27.212 43.28 26.764C43.28 25.74 43.344 24.78 43.344 23.82C43.344 22.924 42.96 22.284 42.96 21.58C42.96 20.172 44.752 20.108 45.904 20.108C48.016 20.108 48.208 20.556 48.208 22.284C48.208 25.612 47.44 30.156 47.44 32.908C47.44 33.228 47.696 33.548 47.696 33.932C47.696 33.996 47.632 34.06 47.632 34.06C47.3331 34.6151 47.3191 35.1987 47.3049 35.7918C47.2978 36.0876 47.2906 36.3858 47.248 36.684C47.248 37.068 47.504 37.324 47.504 37.708C47.504 37.964 47.312 38.22 47.312 38.412C47.312 38.732 47.504 38.988 47.504 39.308C47.504 39.82 47.248 40.588 47.248 41.1C47.248 41.612 47.504 42.124 47.504 42.636C47.504 43.788 46.992 44.94 46.992 45.9C46.992 46.284 47.248 46.668 47.248 47.052C47.248 47.564 46.672 48.076 46.672 48.588C46.672 49.1 47.248 49.42 47.248 50.06ZM183.184 50.06C182.998 51.6109 182.812 52.1395 182.626 53.278C183.058 53.7234 183.12 54.2968 183.12 55.244C183.12 56.844 182.224 56.972 182.224 58.06C182.224 58.316 182.288 58.828 182.48 58.828C182.544 58.828 182.672 58.636 182.864 58.636C183.056 58.636 183.12 60.172 183.12 61.196C183.12 63.372 182.096 63.756 182.096 65.612C182.096 66.38 182.032 66.892 182.032 67.724C182.032 68.94 182.288 70.156 183.824 70.156C183.888 70.156 183.952 70.156 184.016 70.092C184.08 71.052 184.016 72.396 184.4 72.46C185.36 72.46 187.472 63.372 189.072 60.3C189.264 60.364 189.392 60.364 189.52 60.364C190.16 60.364 189.712 58.892 190.16 58.892C190.48 58.892 190.352 61.324 190.8 61.324C191.248 60.876 191.248 59.148 191.248 57.996C191.248 57.484 191.12 56.908 191.12 56.396C191.12 54.732 191.632 52.364 193.168 51.532C193.68 51.276 193.808 49.484 194 48.652C194.192 47.564 195.024 46.732 195.344 45.644C195.391 45.432 195.716 45.0551 196.158 44.6636C196.81 41.7838 197.602 39.436 198.416 39.436C199.312 39.436 200.528 39.884 201.488 40.14C203.216 40.652 204.368 45.388 204.368 47.692C204.368 49.292 204.176 50.828 204.048 52.364C203.6 53.516 203.984 54.732 203.536 55.884C203.472 55.948 203.472 56.076 203.472 56.204C203.472 57.42 203.536 64.46 205.2 64.46C205.328 64.46 205.456 64.46 205.584 64.332C208.249 61.1716 210.553 58.4313 211.51 54.4843C211.534 53.9268 211.567 53.3694 211.6 52.812C211.728 51.404 212.88 50.38 212.88 48.332C212.88 47.884 212.624 47.308 212.624 46.924C213.136 44.812 213.584 42.7 213.84 40.588C213.904 39.948 214.672 39.756 215.184 39.756C216.592 40.076 219.408 40.908 219.408 42.636C219.408 42.828 219.408 42.956 219.344 43.148C218.256 46.156 218.384 48.652 217.552 51.02C217.168 52.044 217.488 53.196 216.848 54.156C216.848 55.052 217.424 56.396 217.424 56.844C217.424 57.292 216.976 57.74 216.976 58.188C216.976 58.252 217.104 58.764 217.36 58.764C217.936 58.764 218.448 57.996 218.704 57.612C220.752 54.348 222.928 51.852 225.68 49.356C226.448 49.292 227.216 49.228 228.048 49.228C229.072 49.228 229.776 50.188 229.776 51.276C229.776 52.94 229.52 54.732 229.456 56.46C229.456 56.524 229.584 56.652 229.712 56.652C230.352 56.652 231.568 54.348 231.824 53.644C232.144 52.556 234.256 50.956 235.856 47.82C235.855 47.8197 237.668 44.1665 238.8 43.852C240.016 43.532 239.696 41.996 240.72 41.292C242.128 40.332 243.536 35.916 247.888 35.916C249.424 35.916 250.704 37.132 250.704 39.948C250.704 40.14 250.64 40.396 250.576 40.524C249.808 42.188 250 44.94 249.808 47.18C249.808 47.82 249.04 48.268 249.04 49.164C249.04 49.74 249.616 49.868 249.616 50.316C249.616 50.828 248.976 51.468 248.976 52.108C248.976 52.3 249.04 52.556 249.104 52.748C248.912 53.772 248.72 54.796 248.528 55.756C248.4 56.14 247.952 56.396 247.952 56.716C247.952 57.868 247.824 57.932 247.184 58.764C247.184 61.516 246.608 63.82 246.608 66.38C246.608 67.148 246.8 67.724 247.888 68.62C249.104 67.212 251.152 64.012 251.984 61.58C252.304 60.94 253.2 60.428 253.2 59.852C253.2 58.7047 253.472 57.4407 254.986 56.9389C255.275 55.4439 255.854 53.9676 256.4 52.556C257.168 50.572 257.616 48.46 259.856 45.26C261.648 42.7 262.416 39.5 266.832 39.5C269.776 39.5 271.248 40.844 272.72 42.764C274.384 41.932 275.472 39.884 277.456 39.116C278.544 38.668 279.184 37.58 280.784 37.58C282.192 37.58 284.176 38.284 284.176 41.292C284.176 45.452 282.32 50.316 282.32 55.116C282.32 56.076 281.296 57.42 281.296 58.764C281.296 61.708 280.656 64.972 280.656 67.916C280.656 68.94 280.72 69.9 280.72 70.86C280.72 71.308 280.656 71.82 280.656 72.204C280.656 72.652 280.784 73.1 281.168 73.484C281.104 73.74 281.04 74.06 281.04 74.316C281.04 74.572 281.744 76.812 281.936 76.812C282.896 76.812 284.368 72.012 284.368 70.604C285.072 68.108 285.712 65.804 286.544 63.5C286.608 62.86 287.248 62.796 287.44 61.964C288.08 59.532 287.76 57.932 289.552 56.268C289.808 56.076 289.936 55.692 290 55.436C290.448 53.772 292.304 51.66 293.648 51.66C294.096 51.66 295.056 51.98 295.056 52.62C295.056 52.748 294.992 52.876 294.928 52.94C294.48 53.644 291.088 57.74 291.088 59.724C290.832 61.644 289.808 63.372 289.36 65.228C288.912 67.02 288.592 69.388 287.76 70.988C287.312 71.628 287.696 72.652 287.056 73.484C286.544 74.444 286.544 76.62 286.544 77.964C286.352 79.308 285.456 80.076 285.008 81.1C284.496 82.252 282.96 82.252 282 82.252C280.4 82.252 279.632 81.228 278.544 80.204C277.904 79.628 278.16 78.86 277.84 78.668C277.024 77.961 276.994 77.0228 276.964 76.0892C276.959 75.9242 276.954 75.7594 276.944 75.596C276.944 74.956 277.008 74.316 277.008 73.676C277.008 72.588 276.048 72.268 276.048 71.372C276.048 66.38 276.624 60.044 276.944 54.604C277.008 53.324 277.968 52.172 277.968 51.468C277.904 51.148 277.904 50.764 277.904 50.444C277.904 45.964 278.224 46.796 278.864 45.58C278.864 44.812 278.544 44.172 278.48 43.468C277.904 43.596 277.456 43.724 276.944 43.788C275.92 43.98 276.688 45.58 275.088 45.58C274.64 46.604 274.448 47.18 273.616 47.628C273.488 47.628 271.184 49.676 271.056 50.252C270.672 51.852 270.928 52.876 269.328 53.324C268.88 53.452 266.64 58.38 265.36 61.068C262.16 66.892 262.288 66.956 259.28 66.956C257.168 66.956 254.8 65.548 254.8 62.86C254.747 62.7356 254.743 62.5963 254.739 62.4574C254.734 62.3077 254.73 62.1583 254.664 62.0281C254.313 62.6849 254.042 63.3959 253.904 64.204C253.712 65.228 251.856 66.7 251.856 67.66C251.856 67.788 251.92 67.916 251.92 68.044C251.92 69.836 251.088 71.244 250.896 72.908C250.704 74.508 249.424 75.276 248.912 76.684C248.592 77.644 246.288 78.092 245.2 78.092C243.216 78.092 242.64 76.364 241.808 74.636C241.872 74.508 241.872 74.38 241.872 74.252C241.872 72.78 240.528 71.884 240.528 70.796C240.528 70.156 240.848 69.644 241.04 69.068C241.255 67.9948 241.244 66.5165 241.235 65.237C241.234 64.9905 241.232 64.7514 241.232 64.524C241.232 63.052 242.192 61.58 242.192 60.492C242.192 60.044 241.872 59.66 241.872 59.276C241.872 58.764 242.384 58.572 242.832 58.124C242.704 57.74 242.384 57.036 242.384 56.588C242.384 53.708 244.24 50.38 244.24 49.1C244.24 48.076 244.304 46.86 244.304 45.708C244.304 44.812 244.112 43.916 244.112 43.02C244.112 42.764 244.176 42.508 244.176 42.252C244.176 42.124 244.048 41.932 243.856 41.932C243.408 41.932 243.152 42.444 242.704 42.444C242.576 42.444 242.512 42.444 242.384 42.38C242.192 43.34 242.256 43.98 241.488 44.3C239.457 45.1249 239.44 49.1588 237.381 50.662C237.387 50.6705 237.391 50.6819 237.392 50.697C237.391 50.6822 237.387 50.671 237.381 50.6625C237.363 50.6752 237.346 50.6877 237.328 50.7L237.328 50.6387C237.308 50.636 237.286 50.636 237.264 50.636C237.328 50.892 237.456 51.084 237.456 51.212C237.456 51.98 236.048 53.708 235.664 54.348C234.768 55.564 234.32 57.612 233.808 59.212C233.488 60.3 232.848 60.556 232.848 61.516C232.848 62.22 231.824 64.652 230.16 64.652C229.615 64.7015 228.956 64.4447 228.27 64.1777C228.07 64.0995 227.867 64.0205 227.664 63.948C224.656 62.988 225.36 54.348 224.336 54.348C223.44 54.348 221.904 58.252 220.88 59.66C220.56 60.108 220.496 61.004 220.112 61.388C218.384 63.244 218.256 65.74 214.736 65.74C214.352 65.74 213.968 65.548 213.648 65.228C213.392 65.036 211.536 62.156 211.536 60.236C211.536 60.1669 211.536 60.0973 211.535 60.0271C211.038 60.4242 211.203 61.1547 210.896 61.708C210.384 62.796 209.296 63.692 209.168 64.524C209.168 65.228 207.888 66.124 207.568 67.084C206.864 68.364 204.368 69.26 202.896 69.26C200.784 69.26 198.032 66.892 197.072 64.716C196.496 63.436 194.832 61.132 194.832 59.276C194.832 57.804 194.576 56.396 194.576 54.988C194.576 54.5667 194.705 53.2889 194.931 51.635C194.559 52.4864 194.25 53.132 194 53.132C193.744 53.132 193.68 52.684 193.36 52.684C192.784 52.684 192.912 58.508 192.72 60.876C192.464 61.068 192.208 61.196 191.888 61.388C191.815 62.29 191.816 63.2012 191.817 64.115C191.819 65.5998 191.821 67.0902 191.504 68.556C191.248 68.556 190.928 68.492 190.608 68.492C190.544 68.62 190.48 68.748 190.48 68.876C190.48 69.196 190.672 69.516 190.672 69.9C190.672 70.22 190.608 70.54 190.608 70.86C190.608 71.052 190.672 71.308 190.672 71.564C190.608 73.804 189.584 75.468 189.008 77.452C188.496 79.116 186.96 79.116 186.64 80.012C186.448 80.588 185.232 81.612 185.168 81.612C184.848 81.612 184.592 81.164 184.208 81.164C183.76 81.164 183.248 81.484 182.8 81.484C179.984 81.164 179.984 75.916 178.576 74.572C178.384 74.38 178.32 73.932 178.32 73.356C178.32 70.348 177.296 71.18 177.296 67.404C177.296 66.316 177.36 65.1 177.36 64.268C177.36 63.18 176.976 62.284 176.976 61.26C176.976 59.788 177.36 58.316 177.36 56.844C177.36 56.204 177.36 55.628 177.296 54.988C177.296 54.3105 177.634 54.2687 177.933 54.2318C178.171 54.2024 178.384 54.1761 178.384 53.836C178.384 53.452 178.32 53.068 178.32 52.684C178.384 51.404 178.448 50.124 178.448 48.844C178.448 47.308 177.744 46.028 177.744 44.62C177.744 42.316 178.256 40.396 178.64 38.22C178.704 38.092 178.768 37.9 178.768 37.644C178.768 37.068 178.576 36.492 178.576 35.852C178.576 35.276 178.96 34.764 178.96 34.188C178.96 33.74 178.832 33.292 178.832 32.78C178.832 31.372 179.28 29.516 179.28 28.236C179.28 27.724 179.216 27.212 179.216 26.764C179.216 25.74 179.28 24.78 179.28 23.82C179.28 22.924 178.896 22.284 178.896 21.58C178.896 20.172 180.688 20.108 181.84 20.108C183.952 20.108 184.144 20.556 184.144 22.284C184.144 25.612 183.376 30.156 183.376 32.908C183.376 33.228 183.632 33.548 183.632 33.932C183.632 33.996 183.568 34.06 183.568 34.06C183.269 34.6151 183.255 35.1987 183.241 35.7918C183.234 36.0876 183.227 36.3858 183.184 36.684C183.184 37.068 183.44 37.324 183.44 37.708C183.44 37.964 183.248 38.22 183.248 38.412C183.248 38.732 183.44 38.988 183.44 39.308C183.44 39.82 183.184 40.588 183.184 41.1C183.184 41.612 183.44 42.124 183.44 42.636C183.44 43.788 182.928 44.94 182.928 45.9C182.928 46.284 183.184 46.668 183.184 47.052C183.184 47.564 182.608 48.076 182.608 48.588C182.608 49.1 183.184 49.42 183.184 50.06ZM63.44 30.284C63.44 31.436 63.888 33.42 65.424 33.42C67.088 33.42 67.856 31.692 67.856 30.22C67.856 28.62 66.128 28.684 64.656 28.364C63.568 28.364 63.44 29.644 63.44 30.284ZM110.864 30.284C110.864 31.436 111.312 33.42 112.848 33.42C114.512 33.42 115.28 31.692 115.28 30.22C115.28 28.62 113.552 28.684 112.08 28.364C110.992 28.364 110.864 29.644 110.864 30.284ZM201.36 33.42C199.824 33.42 199.376 31.436 199.376 30.284C199.376 29.644 199.504 28.364 200.592 28.364C202.064 28.684 203.792 28.62 203.792 30.22C203.792 31.692 203.024 33.42 201.36 33.42ZM139.152 44.492C139.152 44.364 139.088 44.236 139.088 44.044C138.64 43.852 137.936 43.66 137.488 43.66C136.976 43.66 136.592 43.788 136.144 44.044C132.112 46.732 129.104 52.94 128.144 57.804C128.144 58.06 128.208 58.252 128.528 58.252C128.784 58.252 132.112 53.772 133.008 52.3C133.456 51.596 133.968 50.828 134.672 50.252C136.016 49.164 136.784 47.5 138.192 46.412C138.192 46.412 139.152 45.132 139.152 44.492ZM271.312 44.492C271.312 44.364 271.248 44.236 271.248 44.044C270.8 43.852 270.096 43.66 269.648 43.66C269.136 43.66 268.752 43.788 268.304 44.044C264.272 46.732 261.264 52.94 260.304 57.804C260.304 58.06 260.368 58.252 260.688 58.252C260.944 58.252 264.272 53.772 265.168 52.3C265.616 51.596 266.128 50.828 266.832 50.252C268.176 49.164 268.944 47.5 270.352 46.412C270.352 46.412 271.312 45.132 271.312 44.492ZM58.64 49.868C58.576 49.932 58.512 49.932 58.448 49.932C58.448 49.868 58.384 49.804 58.384 49.74C58.384 49.676 58.448 49.612 58.512 49.612C58.576 49.612 58.64 49.804 58.64 49.868ZM194.576 49.868C194.512 49.932 194.448 49.932 194.384 49.932C194.384 49.868 194.32 49.804 194.32 49.74C194.32 49.676 194.384 49.612 194.448 49.612C194.512 49.612 194.576 49.804 194.576 49.868ZM45.584 57.036L45.52 57.164L45.456 56.972L45.584 57.036ZM181.456 57.164L181.392 56.972L181.52 57.036L181.456 57.164ZM56.144 58.316C56.144 58.956 56.208 59.148 56.208 59.404C56.208 59.468 56.144 59.532 56.144 59.596C56.08 59.532 56.016 59.404 56.016 59.276C56.016 59.084 56.08 58.892 56.144 58.316ZM192.08 58.316C192.08 58.956 192.144 59.148 192.144 59.404C192.144 59.468 192.08 59.532 192.08 59.596C192.016 59.532 191.952 59.404 191.952 59.276C191.952 59.084 192.016 58.892 192.08 58.316ZM248.4 58.892C248.336 58.828 248.272 58.7 248.272 58.7C248.016 58.828 247.824 58.828 247.824 59.276C248.272 59.276 248.208 59.148 248.4 58.892ZM42.128 60.492C42 60.236 41.936 59.98 41.936 59.788C41.936 59.276 42.064 58.956 42.384 58.956C42.704 58.956 43.216 59.276 43.216 59.66C43.216 60.236 42.512 60.3 42.128 60.492ZM178.064 60.492C177.936 60.236 177.872 59.98 177.872 59.788C177.872 59.276 178 58.956 178.32 58.956C178.64 58.956 179.152 59.276 179.152 59.66C179.152 60.236 178.448 60.3 178.064 60.492ZM54.928 63.564C54.8 63.564 54.672 63.5 54.672 63.372C54.736 63.18 54.8 63.052 54.992 63.052Q55.184 63.052 55.184 63.244C55.184 63.372 55.056 63.436 54.928 63.564ZM190.864 63.564C190.736 63.564 190.608 63.5 190.608 63.372C190.672 63.18 190.736 63.052 190.928 63.052Q191.12 63.052 191.12 63.244C191.12 63.372 190.992 63.436 190.864 63.564ZM45.648 63.436C45.584 63.5 45.52 63.628 45.456 63.692C45.392 63.628 45.392 63.564 45.392 63.5C45.392 63.372 45.456 63.244 45.52 63.116C45.648 63.244 45.648 63.244 45.648 63.436ZM181.392 63.692C181.328 63.628 181.328 63.564 181.328 63.5C181.328 63.372 181.392 63.244 181.456 63.116C181.584 63.244 181.584 63.244 181.584 63.436C181.52 63.5 181.456 63.628 181.392 63.692ZM52.368 64.396L52.368 65.356C52.368 65.932 52.368 66.38 52.24 66.38L52.112 66.252C52.112 65.612 52.112 64.972 52.176 64.332L52.368 64.396ZM188.304 64.396L188.304 65.356C188.304 65.932 188.304 66.38 188.176 66.38L188.048 66.252C188.048 65.612 188.048 64.972 188.112 64.332L188.304 64.396ZM47.504 72.716C47.568 72.78 47.696 72.972 47.696 73.036C47.632 73.292 47.504 73.42 47.44 73.676C47.312 73.548 47.248 73.42 47.248 73.228C47.248 73.036 47.248 72.716 47.504 72.716ZM183.44 72.716C183.504 72.78 183.632 72.972 183.632 73.036C183.568 73.292 183.44 73.42 183.376 73.676C183.248 73.548 183.184 73.42 183.184 73.228C183.184 73.036 183.184 72.716 183.44 72.716Z" />
      </g>
      <g id="/&gt;">
        <path d="M321.712 37.836C323.296 37.836 323.536 40.14 323.584 40.956C322.864 42.54 322.48 44.316 321.28 45.036C321.184 47.244 318.88 50.652 318.496 51.036C317.248 52.38 316.864 54.012 315.904 55.26C315.52 55.644 315.424 57.036 314.656 57.804C314.176 59.148 312.4 60.828 312.4 61.212C312.4 61.356 312.496 61.5 312.496 61.644C312.496 62.4115 311.729 63.1311 311.153 63.4674C311.154 63.4698 311.12 63.5275 311.061 63.6257C310.751 64.1462 309.76 65.807 309.76 66.444C309.712 66.684 308.176 68.556 307.216 68.844C306.592 68.604 305.296 67.836 305.296 67.164C305.296 65.004 306.832 63.564 307.6 61.692C307.936 60.876 308.272 60.06 308.704 59.292C309.04 58.668 309.856 58.092 309.856 57.756C309.856 56.316 311.968 53.964 313.12 51.9C314.416 49.596 316.048 47.964 317.44 45.132C318.4 43.596 319.312 42.06 320.224 40.524C320.752 39.612 320.896 37.836 321.712 37.836ZM335.104 53.964C335.872 54.396 339.04 55.596 339.04 57.276C339.04 58.332 337.744 59.676 336.544 60.108C335.536 60.444 334.816 61.644 333.808 62.124C332.656 62.652 331.984 63.852 330.976 64.284C330.256 64.62 329.728 65.58 328.816 65.58C328.384 65.58 327.424 65.196 327.424 64.524C327.424 63.18 328.384 63.036 329.104 61.932C329.584 61.164 331.408 60.396 332.416 59.244C333.184 58.428 335.152 57.276 335.152 56.7C335.152 54.876 327.76 55.5 327.76 50.94C327.76 50.46 327.76 49.836 328.288 49.836C328.528 49.836 328.576 50.076 328.72 50.172C329.728 51.996 332.944 52.716 335.104 53.964ZM313.744 58.524C313.792 58.524 313.84 58.476 313.84 58.38C313.84 58.284 313.792 58.284 313.792 58.284C313.744 58.284 313.648 58.38 313.648 58.476C313.696 58.524 313.696 58.524 313.744 58.524Z" />
      </g>
    </g>
  </g>
</svg>